<svg xmlns="http://www.w3.org/2000/svg" viewBox="0 0 305.57 98.15"><defs><style>.cls-1{fill:#414042;}.cls-2{fill:#f1f2f2;}.cls-3{fill:#d1d3d4;}</style></defs><g id="Layer_2" data-name="Layer 2"><g id="Layer_1-2" data-name="Layer 1"><rect class="cls-1" width="305.57" height="98.15" rx="33.95"/><path class="cls-2" d="M19.73,52.48C19.73,41.76,26.5,35.1,34,35.1c3.85,0,6.37,1.44,9.27,3.83l-.24-5.67V20.52h5.59V69H44l-.47-3.9h-.19c-2.57,2.57-6.09,4.72-10,4.72C25.09,69.78,19.73,63.5,19.73,52.48Zm23.33,8.08V43.24C40.24,40.73,37.7,39.8,35,39.8c-5.29,0-9.49,5.1-9.49,12.63,0,7.92,3.28,12.64,9.07,12.64C37.64,65.07,40.29,63.58,43.06,60.56Z"/><path class="cls-2" d="M54,60.38c0-7.2,6.21-10.8,20.3-12.33,0-4.25-1.42-8.35-6.82-8.35-3.82,0-7.27,1.81-9.86,3.55L55.4,39.41c3-2,7.68-4.31,13-4.31,8.06,0,11.47,5.36,11.47,13.59V69H75.24L74.77,65h-.18c-3.15,2.62-6.83,4.77-10.93,4.77C58.12,69.78,54,66.34,54,60.38Zm20.3.52V51.72c-11.07,1.33-14.82,4-14.82,8.27,0,3.75,2.55,5.28,5.79,5.28S71.07,63.72,74.27,60.9Z"/><path class="cls-2" d="M83.17,82.53l1.09-4.46a8.74,8.74,0,0,0,2.52.49c3.73,0,6.09-3,7.45-7.09L95,69,81.72,35.91h5.77l6.74,18.3c1,2.87,2.15,6.25,3.22,9.31h.27c.94-3,1.88-6.39,2.78-9.31l5.89-18.3h5.48L99.42,71.69c-2.33,6.55-5.75,11.52-12.37,11.52A10.87,10.87,0,0,1,83.17,82.53Z"/><path class="cls-3" d="M118.1,55.91V44.08h-4.49v-8.7l5.17-.41,1.36-8.84h9.66V35h7.75v9.11H129.8V55.7c0,3.74,1.9,5,4.08,5a9.59,9.59,0,0,0,3-.55l1.77,8.44a25.88,25.88,0,0,1-8,1.22C121.77,69.78,118.1,64.2,118.1,55.91Z"/><path class="cls-3" d="M143.81,21.64H155.5v11L155,38.5c2.31-2,5.57-4.35,10.2-4.35,7.48,0,10.6,5.44,10.6,13.87V69H164.07V49.52c0-4.35-1.09-5.44-3.4-5.44s-3.4,1-5.17,2.58V69H143.81Z"/><path class="cls-3" d="M179.51,24.9c0-3.4,2.71-5.84,6.52-5.84s6.53,2.44,6.53,5.84-2.72,5.85-6.53,5.85S179.51,28.3,179.51,24.9ZM180.19,35h11.69V69H180.19Z"/><path class="cls-3" d="M196.57,35h9.52l.82,5.84h.27c2.52-4.62,6.32-6.66,9.65-6.66a10.08,10.08,0,0,1,4.22.68l-1.9,10.06a16.27,16.27,0,0,0-3.81-.54c-2.45,0-5.44,1.5-7.07,5.71V69h-11.7Z"/><path class="cls-3" d="M228.94,55.91V44.08h-4.49v-8.7l5.17-.41L231,26.13h9.66V35h7.75v9.11h-7.75V55.7c0,3.74,1.9,5,4.08,5a9.59,9.59,0,0,0,3-.55l1.76,8.44a25.75,25.75,0,0,1-8,1.22C232.61,69.78,228.94,64.2,228.94,55.91Z"/><path class="cls-3" d="M254.51,81.07l2-8.84a11.57,11.57,0,0,0,2.17.4c3.13,0,4.63-1.35,5.31-3.39l.41-1.5L251.52,35h11.69L267.29,48c.95,3.13,1.63,6.26,2.45,9.66H270c.68-3.27,1.36-6.39,2.18-9.66L275.59,35h11.15L275.31,68.42c-3.53,9.18-7.2,13.33-15.63,13.33A17.83,17.83,0,0,1,254.51,81.07Z"/></g></g></svg>